<?xml version="1.0" standalone="no"?>
<!DOCTYPE svg PUBLIC "-//W3C//DTD SVG 20010904//EN"
 "http://www.w3.org/TR/2001/REC-SVG-20010904/DTD/svg10.dtd">
<svg version="1.0" xmlns="http://www.w3.org/2000/svg"
 width="363.000000pt" height="363.000000pt" viewBox="0 0 363.000000 363.000000"
 preserveAspectRatio="xMidYMid meet">
<metadata>
Created by potrace 1.14, written by Peter Selinger 2001-2017
</metadata>
<g transform="translate(0.000000,363.000000) scale(0.100000,-0.100000)"
fill="#000000" stroke="none">
<path d="M1640 3623 c-121 -12 -358 -69 -455 -110 -259 -108 -430 -219 -611
-398 -149 -148 -252 -288 -347 -472 -71 -136 -148 -371 -172 -521 -4 -23 -9
-54 -11 -70 -10 -55 -12 -389 -3 -447 5 -33 12 -76 14 -95 23 -151 96 -373
175 -525 97 -189 187 -313 330 -456 107 -107 158 -150 257 -218 102 -69 118
-78 238 -136 126 -61 228 -97 370 -130 136 -32 213 -40 395 -39 185 0 270 9
410 44 192 49 405 141 557 244 376 251 644 630 753 1061 45 178 55 261 55 460
0 139 -10 289 -20 305 -2 3 -6 23 -9 45 -26 165 -141 467 -227 595 -13 19 -30
47 -38 62 -8 15 -21 36 -30 45 -9 10 -35 44 -59 75 -23 32 -60 76 -82 99 -22
23 -40 46 -40 51 0 5 -4 6 -10 3 -5 -3 -10 1 -10 9 0 9 -3 16 -7 16 -5 0 -33
24 -63 52 -102 95 -247 195 -390 269 -71 37 -258 108 -340 129 -53 14 -69 18
-135 30 -27 5 -63 12 -80 15 -34 7 -362 13 -415 8z"/>
</g>
</svg>
